Coordinates
version=1
nRows=7
nColumns=40
inDegrees=yes

Units are S.I. units (second, meters, Newtons, ...)
If the header above contains a line with 'inDegrees', this indicates whether rotational values are in degrees (yes) or radians (no).

endheader
time	pelvis_tilt	pelvis_list	pelvis_rotation	pelvis_tx	pelvis_ty	pelvis_tz	hip_flexion_r	hip_adduction_r	hip_rotation_r	knee_angle_r	knee_angle_r_beta	ankle_angle_r	subtalar_angle_r	mtp_angle_r	hip_flexion_l	hip_adduction_l	hip_rotation_l	knee_angle_l	knee_angle_l_beta	ankle_angle_l	subtalar_angle_l	mtp_angle_l	lumbar_extension	lumbar_bending	lumbar_rotation	arm_flex_r	arm_add_r	arm_rot_r	elbow_flex_r	pro_sup_r	wrist_flex_r	wrist_dev_r	arm_flex_l	arm_add_l	arm_rot_l	elbow_flex_l	pro_sup_l	wrist_flex_l	wrist_dev_l
      4.14000000	      8.22773466	     -5.40783955	     -4.43121002	     -0.33684416	      0.90508806	     -1.02147887	     65.84003282	      7.27805075	     -6.17992761	     30.21108401	      0.52728289	     -6.09044837	      0.00000000	      0.00000000	     32.53024061	     -5.99819988	     -7.79199446	     73.70513461	      1.28639727	     30.67560619	      0.00000000	      0.00000000	    -20.09548321	      0.38661131	      0.12079275	     89.90612527	     -3.07220819	     28.00040007	     32.22564643	     78.49304800	      0.00000000	      0.00000000	     89.94771344	    -18.21983132	     29.32222489	     40.25257000	     85.11478318	      0.00000000	      0.00000000
      4.14500000	      8.52394943	     -5.15573158	     -4.64428178	     -0.33633635	      0.90671738	     -1.02128115	     65.52948153	      7.33834506	     -6.02876576	     30.32262047	      0.52922957	     -6.03099672	      0.00000000	      0.00000000	     31.88683750	     -5.89521976	     -8.29355974	     73.30777270	      1.27946200	     30.53384642	      0.00000000	      0.00000000	    -20.32718145	      0.02031350	      0.26355546	     89.90536882	     -3.08019065	     28.00306607	     32.20378473	     78.50182100	      0.00000000	      0.00000000	     89.94735588	    -18.21489208	     29.42624004	     40.15681312	     85.13452061	      0.00000000	      0.00000000
      4.15000000	      8.43794340	     -5.44057591	     -4.30928287	     -0.33671965	      0.90693923	     -1.02169711	     65.59067028	      7.24978125	     -6.24586712	     30.20321766	      0.52714559	     -6.01227198	      0.00000000	      0.00000000	     32.11036114	     -6.00112148	     -7.80877887	     73.37197251	      1.28058250	     30.53012954	      0.00000000	      0.00000000	    -20.26291287	      0.41831651	      0.06070344	     89.90625811	     -3.13223680	     27.94768173	     32.30498445	     78.58543855	      0.00000000	      0.00000000	     89.94756972	    -18.20868656	     29.45912803	     40.17551079	     85.10403501	      0.00000000	      0.00000000
      4.15500000	      8.33481211	     -5.47308718	     -4.25583928	     -0.33673286	      0.90715102	     -1.02167920	     65.74217498	      7.23777288	     -6.30535552	     30.24729988	      0.52791497	     -6.07915483	      0.00000000	      0.00000000	     32.21449890	     -6.03262120	     -7.76295126	     73.33480188	      1.27993375	     30.72853064	      0.00000000	      0.00000000	    -20.10460487	      0.45717218	      0.00574347	     89.90589143	     -3.13360921	     28.54588009	     32.41507653	     71.89109335	      0.00000000	      0.00000000	     89.94740958	    -18.19576661	     29.41254796	     40.10705659	     85.35588503	      0.00000000	      0.00000000
      4.16000000	      8.58873486	     -5.12870204	     -4.47730344	     -0.33626510	      0.90878308	     -1.02144897	     65.47323977	      7.25620255	     -6.06702990	     30.34847711	      0.52968085	     -6.06934240	      0.00000000	      0.00000000	     31.59688107	     -5.83522396	     -8.30930007	     72.87220152	      1.27185985	     30.53641563	      0.00000000	      0.00000000	    -20.30228816	     -0.03156181	      0.06973494	     89.90456500	     -3.09597161	     28.54526805	     32.33080065	     72.06402190	      0.00000000	      0.00000000	     89.94703243	    -18.20492437	     29.52326070	     40.00262871	     85.31583261	      0.00000000	      0.00000000
      4.16500000	      8.58705155	     -5.14238975	     -4.46242200	     -0.33622648	      0.90940521	     -1.02145745	     65.49049641	      7.28695788	     -6.05715189	     30.34308791	      0.52958679	     -6.05547093	      0.00000000	      0.00000000	     31.57343435	     -5.85394700	     -8.30412263	     72.83364026	      1.27118683	     30.52799435	      0.00000000	      0.00000000	    -20.28151086	     -0.03215414	      0.04382193	     89.90408716	     -3.10465105	     28.52241538	     32.37138809	     72.07299456	      0.00000000	      0.00000000	     89.94686414	    -18.20361638	     29.50390655	     40.02489136	     85.31001073	      0.00000000	      0.00000000
      4.17000000	      8.48735281	     -5.42802596	     -4.17750261	     -0.33651438	      0.90952281	     -1.02162726	     65.56369538	      7.26958367	     -6.18683410	     30.21070785	      0.52727632	     -5.96513677	      0.00000000	      0.00000000	     31.76340506	     -6.04286533	     -7.92034681	     72.84591355	      1.27140104	     30.46756741	      0.00000000	      0.00000000	    -20.17684276	      0.33472312	     -0.12533173	     89.90487899	     -3.14228295	     28.00611733	     32.32658837	     78.62627849	      0.00000000	      0.00000000	     89.94713206	    -18.19449914	     29.55455066	     39.99348732	     85.04783687	      0.00000000	      0.00000000
